Coordinates
version=1
nRows=17
nColumns=24
inDegrees=yes

Units are S.I. units (second, meters, Newtons, ...)
Angles are in degrees.

endheader
time	pelvis_tilt	pelvis_list	pelvis_rotation	pelvis_tx	pelvis_ty	pelvis_tz	hip_flexion_r	hip_adduction_r	hip_rotation_r	knee_angle_r	ankle_angle_r	subtalar_angle_r	mtp_angle_r	hip_flexion_l	hip_adduction_l	hip_rotation_l	knee_angle_l	ankle_angle_l	subtalar_angle_l	mtp_angle_l	lumbar_extension	lumbar_bending	lumbar_rotation
      2.74000000	    -12.01673048	     -1.16688483	      6.93515534	     -1.94053242	     -0.03801255	     -0.31920116	     36.41640404	     -2.75133881	    -17.68204972	     -7.19344215	     -2.60798825	      1.15105694	     14.10033625	     -3.72036635	      1.32842349	     -4.74952380	    -12.70624364	      9.26108386	     -1.37892029	      5.46400920	      3.82521513	      1.38344420	     -8.81174212
      2.74500000	    -12.01424887	     -1.29700542	      6.96315723	     -1.93238615	     -0.03885737	     -0.31878851	     36.39657698	     -2.56710938	    -17.65781985	     -7.48776864	     -2.47729347	      1.19570355	     14.19009820	     -3.93663659	      1.01156036	     -4.88149737	    -13.22035652	      9.01426699	     -0.89811532	      5.68041323	      3.91019186	      1.52000315	     -8.85048248
      2.75000000	    -12.01252166	     -1.44511561	      6.97812400	     -1.92414637	     -0.03967707	     -0.31832843	     36.37872598	     -2.35679669	    -17.54976591	     -7.87062997	     -2.50625411	      1.08814736	     14.31511309	     -4.13999916	      0.66595620	     -5.03813147	    -13.75357466	      8.71658220	     -0.40060748	      5.95645722	      4.01195491	      1.67046805	     -8.87232447
      2.75500000	    -12.02591777	     -1.61315878	      6.97905269	     -1.91581594	     -0.04048088	     -0.31783956	     36.36777911	     -2.11691001	    -17.33986099	     -8.30593482	     -2.73006027	      0.79432322	     14.46562029	     -4.30730509	      0.29559393	     -5.18015583	    -14.32454994	      8.36071387	      0.08100506	      6.26362645	      4.14611911	      1.84377055	     -8.88827791
      2.76000000	    -12.04398333	     -1.79316961	      6.95654089	     -1.90742885	     -0.04123962	     -0.31730285	     36.35969847	     -1.85065245	    -17.03003450	     -8.79143615	     -3.18393678	      0.32831075	     14.64066737	     -4.45212994	     -0.09089554	     -5.32381733	    -14.92227691	      7.93018914	      0.54041242	      6.60772750	      4.29682347	      2.02936615	     -8.88553981
      2.76500000	    -12.01235548	     -1.97799096	      6.89701366	     -1.89899744	     -0.04190629	     -0.31670739	     36.30326961	     -1.55614957	    -16.71654514	     -9.28216259	     -4.05830000	     -0.38819128	     16.06111149	     -4.65137647	     -0.49993294	     -5.60020745	    -15.44743329	      7.05936174	      0.82893358	      8.59965671	      4.39753590	      2.22892105	     -8.86215424
      2.77000000	    -12.06787573	     -2.18607012	      6.86006759	     -1.89061430	     -0.04256884	     -0.31609873	     36.36061544	     -1.26059653	    -16.34503971	     -9.87619293	     -4.94745373	     -1.23248461	     16.00102608	     -4.68062547	     -0.91960844	     -5.70553157	    -16.16777786	      6.57347130	      1.28265193	      8.63798183	      4.59095218	      2.43609170	     -8.84625389
      2.77500000	    -12.11244266	     -2.44305792	      6.76357556	     -1.88211217	     -0.04312594	     -0.31541209	     36.40217933	     -0.87757211	    -15.91435044	    -10.47214470	     -6.04940576	     -2.29233474	     15.89829418	     -4.70815808	     -1.39874285	     -5.89355088	    -16.90239874	      5.96903742	      1.73086054	      8.78045638	      4.79634549	      2.69982592	     -8.77191301
      2.78000000	    -12.15899469	     -2.73244603	      6.66338703	     -1.87367203	     -0.04359016	     -0.31471052	     36.46191803	     -0.46614803	    -15.46865828	    -11.10066644	     -7.29864188	     -3.53433179	     15.68470544	     -4.67708466	     -1.91449606	     -6.05740154	    -17.71209746	      5.28804330	      2.12715982	      8.99513065	      4.99674975	      2.99982144	     -8.71282750
      2.78500000	    -12.21478046	     -3.05126336	      6.52054515	     -1.86520163	     -0.04395823	     -0.31395596	     36.54153843	     -0.00375090	    -14.98263498	    -11.75476693	     -8.61670671	     -4.92307225	     15.33281935	     -4.60354308	     -2.46285988	     -6.25079843	    -18.56462383	      4.49358803	      2.49716707	      9.27793963	      5.21460244	      3.33555208	     -8.62304769
      2.79000000	    -12.27570830	     -3.38657173	      6.33968525	     -1.85672022	     -0.04423161	     -0.31312286	     36.63447756	      0.49869652	    -14.44374343	    -12.43771480	     -9.90950352	     -6.41215205	     14.81257155	     -4.48116806	     -3.03625796	     -6.48789482	    -19.47798769	      3.57156641	      2.85958098	      9.66286250	      5.43895632	      3.68770847	     -8.49995066
      2.79500000	    -12.27977694	     -3.81295631	      6.09786294	     -1.84811322	     -0.04433903	     -0.31218700	     36.66627461	      1.13562891	    -13.89338409	    -13.18304914	    -10.84984998	     -7.71343499	     12.87750556	     -4.41367947	     -3.73791626	     -6.87130686	    -20.31023327	      2.08649635	      3.05046101	     12.25612211	      5.62671687	      4.15028861	     -8.31560624
      2.80000000	    -12.39087984	     -4.12419625	      5.91718603	     -1.83969955	     -0.04447366	     -0.31133113	     36.82415904	      1.60314046	    -13.32182352	    -13.94240199	    -11.87481413	     -9.15132614	     12.28427148	     -4.11836316	     -4.28393357	     -7.03512178	    -21.39661386	      0.96418881	      3.34567650	     12.27696220	      5.89353625	      4.47011499	     -8.21227150
      2.80500000	    -12.47338066	     -4.47956479	      5.59253939	     -1.83116049	     -0.04454977	     -0.31026427	     36.95078036	      2.21003504	    -12.70100147	    -14.72845870	    -12.64985719	    -10.40789765	     11.24219576	     -3.84409263	     -4.90734778	     -7.44589122	    -22.51042301	     -0.33341917	      3.72187800	     12.82018115	      6.13683621	      4.85870879	     -7.92763388
      2.81000000	    -12.48011183	     -4.84495292	      5.41511668	     -1.82267874	     -0.04438923	     -0.30931911	     36.96349881	      2.75640058	    -12.19648286	    -15.55330233	    -12.80549386	    -11.29190542	      8.64995569	     -3.58023139	     -5.55465345	     -7.63711661	    -23.58954520	     -2.23732805	      3.74264972	     15.01353105	      6.30409603	      5.23735273	     -7.86910329
      2.81500000	    -12.57404079	     -5.13630505	      5.22109538	     -1.81424224	     -0.04431652	     -0.30838412	     37.05146671	      3.22232384	    -11.73210832	    -16.30423830	    -13.18089260	    -12.28292776	      8.31111186	     -3.13520970	     -6.10771719	     -7.77539224	    -24.89175121	     -3.77455983	      3.98974377	     14.95527881	      6.55234900	      5.53703432	     -7.78496008
      2.82000000	    -12.61235551	     -5.43609282	      4.95689294	     -1.80578738	     -0.04415978	     -0.30728678	     37.06331907	      3.75920242	    -11.27816240	    -17.07553367	    -13.08905039	    -12.92139143	      6.97644342	     -2.73286077	     -6.70579061	     -8.07763394	    -26.14451216	     -5.83483896	      4.06153802	     16.66021172	      6.72954646	      5.85234376	     -7.60947133
